<svg xmlns:dc="http://purl.org/dc/elements/1.1/" xmlns:cc="http://creativecommons.org/ns#"
     xmlns:rdf="http://www.w3.org/1999/02/22-rdf-syntax-ns#" xmlns:svg="http://www.w3.org/2000/svg"
     xmlns="http://www.w3.org/2000/svg" viewBox="0 0 50 50" preserveAspectRatio="xMidYMid meet">
    <metadata>
        <rdf:RDF>
            <cc:Work>
                <dc:format>image/svg+xml</dc:format>
                <dc:type rdf:resource="http://purl.org/dc/dcmitype/StillImage"/>
                <dc:title>Jdenticon</dc:title>
                <dc:creator>
                    <cc:Agent>
                        <dc:title>Daniel Mester Pirttijärvi</dc:title>
                    </cc:Agent>
                </dc:creator>
                <dc:source>https://github.com/dmester/jdenticon</dc:source>
                <cc:license rdf:resource="https://github.com/dmester/jdenticon/blob/master/LICENSE"/>
            </cc:Work>
        </rdf:RDF>
    </metadata>
    <mask id="avatarsRadiusMask">
        <rect width="50" height="50" rx="0" ry="0" x="0" y="0" fill="#fff"/>
    </mask>
    <g mask="url(#avatarsRadiusMask)">
        <path fill="#c1d2ea"
              d="M13 1L25 1L25 13ZM37 1L37 13L25 13ZM37 49L25 49L25 37ZM13 49L13 37L25 37ZM1 13L13 13L13 25ZM49 13L49 25L37 25ZM49 37L37 37L37 25ZM1 37L1 25L13 25Z"/>
        <path fill="#5b5b5b" d="M1 13L1 1L13 1ZM37 1L49 1L49 13ZM49 37L49 49L37 49ZM13 49L1 49L1 37Z"/>
        <path fill="#84a6d6" d="M17.8 25a7.2,7.2 0 1,1 14.4,0a7.2,7.2 0 1,1 -14.4,0"/>
    </g>
</svg>
